<svg width="149" height="270" viewBox="0 0 149 270" fill="none" xmlns="http://www.w3.org/2000/svg">
<g clip-path="url(#clip0_119_992)">
<path d="M49.5372 12.2724L24.7686 12.2724C11.0893 12.2724 -1.07661e-05 23.2617 -1.01736e-05 36.8176L-1.05375e-06 245.454C-0.000532604 259.01 11.0888 269.999 24.7681 269.999L123.843 269.999C137.523 269.999 148.612 259.01 148.612 245.454L148.612 36.8181C148.612 23.2622 137.523 12.2729 123.843 12.2729L99.0749 12.2729C99.0749 5.49494 93.5299 3.54107e-06 86.6903 3.84004e-06L61.9217 4.92271e-06C55.0816 -0.000513577 49.5372 5.49442 49.5372 12.2724ZM61.9212 24.5447L123.843 24.5447C130.683 24.5447 136.228 30.0396 136.228 36.8176L136.228 245.454C136.228 252.232 130.683 257.727 123.843 257.727L24.7681 257.727C17.9284 257.727 12.3835 252.232 12.3835 245.454L12.3835 36.8181C12.3835 30.0402 17.9284 24.5452 24.768 24.5452L61.9212 24.5447Z" fill="#25263B"/>
<path d="M38.9973 63.7208C31.2728 63.7208 25.0107 57.4838 25.0107 49.7901C25.0107 42.0964 31.2727 35.8594 38.9973 35.8594L110.1 35.8594C117.824 35.8594 124.086 42.0964 124.086 49.7901C124.086 57.4838 117.824 63.7208 110.1 63.7208L38.9973 63.7208Z" fill="#B721FF"/>
<path d="M38.9973 100.107C31.2728 100.107 25.0107 93.8705 25.0107 86.1768C25.0107 78.4831 31.2727 72.2462 38.9973 72.2462L110.1 72.2461C117.824 72.2461 124.086 78.4831 124.086 86.1768C124.086 93.8705 117.824 100.107 110.1 100.107L38.9973 100.107Z" fill="#B721FF"/>
<path d="M38.9973 136.494C31.2728 136.494 25.0107 130.257 25.0107 122.564C25.0107 114.87 31.2727 108.633 38.9973 108.633L110.1 108.633C117.824 108.633 124.086 114.87 124.086 122.564C124.086 130.257 117.824 136.494 110.1 136.494L38.9973 136.494Z" fill="#B721FF"/>
<path d="M38.9973 172.881C31.2728 172.881 25.0107 166.644 25.0107 158.95C25.0107 151.257 31.2727 145.02 38.9973 145.02L110.1 145.02C117.824 145.02 124.086 151.257 124.086 158.95C124.086 166.644 117.824 172.881 110.1 172.881L38.9973 172.881Z" fill="#B721FF"/>
<path d="M38.9973 209.268C31.2728 209.268 25.0107 203.031 25.0107 195.337C25.0107 187.643 31.2727 181.406 38.9973 181.406L110.1 181.406C117.824 181.406 124.086 187.643 124.086 195.337C124.086 203.031 117.824 209.268 110.1 209.268L38.9973 209.268Z" fill="#B721FF"/>
<path d="M38.9973 245.654C31.2728 245.654 25.0107 239.417 25.0107 231.724C25.0107 224.03 31.2727 217.793 38.9973 217.793L110.1 217.793C117.824 217.793 124.086 224.03 124.086 231.724C124.086 239.417 117.824 245.654 110.1 245.654L38.9973 245.654Z" fill="#B721FF"/>
</g>
<defs>
<clipPath id="clip0_119_992">
<rect width="270" height="149" fill="white" transform="translate(0 270) rotate(-90)"/>
</clipPath>
</defs>
</svg>
