<svg width="18" height="18" viewBox="0 0 18 18" fill="none" xmlns="http://www.w3.org/2000/svg">
<path d="M11.25 2.8125H3.375C2.44302 2.8125 1.6875 3.56802 1.6875 4.5V15.75C1.6875 16.682 2.44302 17.4375 3.375 17.4375H11.25C12.182 17.4375 12.9375 16.682 12.9375 15.75V4.5C12.9375 3.56802 12.182 2.8125 11.25 2.8125Z" fill="white"/>
<path d="M16.3124 2.25V13.5C16.311 13.9471 16.1327 14.3755 15.8166 14.6916C15.5004 15.0078 15.072 15.186 14.6249 15.1875H14.0624V4.5C14.0624 3.75408 13.7661 3.03871 13.2387 2.51126C12.7112 1.98382 11.9959 1.6875 11.2499 1.6875H5.1637C5.27975 1.35925 5.49449 1.07494 5.77847 0.873528C6.06246 0.672119 6.40179 0.563478 6.74995 0.5625H14.6249C15.072 0.563983 15.5004 0.742249 15.8166 1.0584C16.1327 1.37454 16.311 1.8029 16.3124 2.25Z" fill="white"/>
</svg>
