<svg width="17" height="16" viewBox="0 0 17 16" fill="none" xmlns="http://www.w3.org/2000/svg">
<g clip-path="url(#clip0_4002_65)">
<path d="M11.8923 5.69232H16.2V3.69232C16.2 2.41985 15.1648 1.38463 13.8923 1.38463H2.5077C1.23523 1.38463 0.200012 2.41985 0.200012 3.69232V12.3077C0.200012 13.5802 1.23523 14.6154 2.5077 14.6154H13.8923C15.1648 14.6154 16.2 13.5802 16.2 12.3077V10.3077H11.8923C10.6199 10.3077 9.58464 9.27247 9.58464 8C9.58464 6.72753 10.6199 5.69232 11.8923 5.69232Z" fill="#A2ABBA"/>
<path d="M11.8923 6.61537C11.1288 6.61537 10.5077 7.2365 10.5077 8C10.5077 8.7635 11.1288 9.38462 11.8923 9.38462H16.2V6.6154L11.8923 6.61537ZM12.5077 8.46153H11.8923C11.6374 8.46153 11.4308 8.25487 11.4308 8C11.4308 7.74512 11.6374 7.53847 11.8923 7.53847H12.5077C12.7626 7.53847 12.9692 7.74512 12.9692 8C12.9692 8.25487 12.7626 8.46153 12.5077 8.46153Z" fill="#A2ABBA"/>
</g>
<defs>
<clipPath id="clip0_4002_65">
<rect width="16" height="16" fill="white" transform="translate(0.200012)"/>
</clipPath>
</defs>
</svg>
