<svg width="19" height="18" viewBox="0 0 19 18" fill="none" xmlns="http://www.w3.org/2000/svg">
<path d="M12.7425 1.5H6.45754C3.72754 1.5 2.10004 3.1275 2.10004 5.8575V12.1425C2.10004 14.8725 3.72754 16.5 6.45754 16.5H12.7425C15.4725 16.5 17.1 14.8725 17.1 12.1425V5.8575C17.1 3.1275 15.4725 1.5 12.7425 1.5ZM8.07754 11.175L6.39004 12.8625C6.27754 12.975 6.13504 13.0275 5.99254 13.0275C5.85004 13.0275 5.70004 12.975 5.59504 12.8625L5.03254 12.3C4.80754 12.0825 4.80754 11.7225 5.03254 11.505C5.25004 11.2875 5.60254 11.2875 5.82754 11.505L5.99254 11.67L7.28254 10.38C7.50004 10.1625 7.85254 10.1625 8.07754 10.38C8.29504 10.5975 8.29504 10.9575 8.07754 11.175ZM8.07754 5.925L6.39004 7.6125C6.27754 7.725 6.13504 7.7775 5.99254 7.7775C5.85004 7.7775 5.70004 7.725 5.59504 7.6125L5.03254 7.05C4.80754 6.8325 4.80754 6.4725 5.03254 6.255C5.25004 6.0375 5.60254 6.0375 5.82754 6.255L5.99254 6.42L7.28254 5.13C7.50004 4.9125 7.85254 4.9125 8.07754 5.13C8.29504 5.3475 8.29504 5.7075 8.07754 5.925ZM13.77 12.465H9.83254C9.52504 12.465 9.27004 12.21 9.27004 11.9025C9.27004 11.595 9.52504 11.34 9.83254 11.34H13.77C13.9192 11.34 14.0623 11.3993 14.1678 11.5048C14.2733 11.6102 14.3325 11.7533 14.3325 11.9025C14.3325 12.0517 14.2733 12.1948 14.1678 12.3002C14.0623 12.4057 13.9192 12.465 13.77 12.465ZM13.77 7.215H9.83254C9.52504 7.215 9.27004 6.96 9.27004 6.6525C9.27004 6.345 9.52504 6.09 9.83254 6.09H13.77C13.9192 6.09 14.0623 6.14926 14.1678 6.25475C14.2733 6.36024 14.3325 6.50332 14.3325 6.6525C14.3325 6.80168 14.2733 6.94476 14.1678 7.05025C14.0623 7.15574 13.9192 7.215 13.77 7.215Z" fill="#A2ABBA"/>
</svg>
