<svg width="19" height="18" viewBox="0 0 19 18" fill="none" xmlns="http://www.w3.org/2000/svg">
<path d="M9.02657 1.125H7.61188C7.46283 1.12545 7.32002 1.18485 7.21462 1.29024C7.10923 1.39564 7.04982 1.53845 7.04938 1.6875V2.80969H9.58907V1.6875C9.58907 1.53832 9.5298 1.39524 9.42431 1.28975C9.31883 1.18426 9.17575 1.125 9.02657 1.125ZM13.6194 6.77531H5.98063C5.67639 6.77561 5.38469 6.8966 5.16955 7.11174C4.95442 7.32687 4.83343 7.61857 4.83313 7.92281V15.7275C4.83343 16.0317 4.95442 16.3234 5.16955 16.5386C5.38469 16.7537 5.67639 16.8747 5.98063 16.875H13.6194C13.9236 16.8747 14.2153 16.7537 14.4305 16.5386C14.6456 16.3234 14.7666 16.0317 14.7669 15.7275V7.92281C14.7666 7.61857 14.6456 7.32687 14.4305 7.11174C14.2153 6.8966 13.9236 6.77561 13.6194 6.77531ZM10.6578 6.21281V4.21594C10.6578 3.99216 10.5689 3.77755 10.4107 3.61932C10.2525 3.46108 10.0378 3.37219 9.81407 3.37219H6.85813C6.63458 3.37293 6.4204 3.46206 6.26233 3.62014C6.10425 3.77821 6.01512 3.99239 6.01438 4.21594V6.21281C6.26385 6.20972 10.6578 6.21281 10.6578 6.21281Z" fill="white"/>
</svg>
