<svg width="18" height="18" viewBox="0 0 18 18" fill="none" xmlns="http://www.w3.org/2000/svg">
<path d="M4.52143 13.8857V14.7001C4.52143 14.8081 4.56427 14.9117 4.64077 14.9879C4.71691 15.0644 4.82077 15.1072 4.92859 15.1072H13.0714C13.1249 15.1073 13.1779 15.0968 13.2273 15.0763C13.2768 15.0559 13.3217 15.0258 13.3595 14.988C13.3973 14.9502 13.4273 14.9053 13.4477 14.8558C13.4682 14.8064 13.4787 14.7534 13.4786 14.6999V13.8857C13.4786 12.698 13.0067 11.5588 12.1668 10.7189C11.3269 9.87901 10.1878 9.40717 9.00001 9.40717C7.81222 9.40717 6.67307 9.87901 5.83318 10.7189C4.99328 11.5588 4.52143 12.698 4.52143 13.8857ZM0.857172 15.1072H3.77713C3.73089 14.9765 3.70721 14.8388 3.70711 14.7001V13.8857C3.70711 12.9559 3.95191 12.0512 4.40551 11.2579C4.05551 11.1108 3.6796 11.0353 3.29995 11.0358C1.72621 11.0358 0.450012 12.3116 0.450012 13.8857V14.7001C0.45006 14.808 0.492972 14.9116 0.569319 14.9879C0.645666 15.0643 0.749201 15.1072 0.857172 15.1072ZM14.7001 11.0358C14.3079 11.0358 13.9345 11.1146 13.5947 11.2579C14.0523 12.0581 14.293 12.9639 14.2929 13.8857V14.7001C14.2929 14.8401 14.2688 14.9776 14.2227 15.1072H17.1428C17.2508 15.1072 17.3544 15.0643 17.4307 14.9879C17.507 14.9116 17.55 14.808 17.55 14.7001V13.8857C17.55 12.3116 16.274 11.0358 14.7001 11.0358Z" fill="#A2ABBA"/>
<path d="M4.72287 9.64207C5.52556 8.85492 5.53816 7.5661 4.75101 6.76341C3.96386 5.96072 2.67504 5.94812 1.87235 6.73527C1.06965 7.52243 1.05706 8.81125 1.84421 9.61394C2.63136 10.4166 3.92018 10.4292 4.72287 9.64207Z" fill="#A2ABBA"/>
<path d="M16.1256 9.64636C16.9284 8.85914 16.941 7.5702 16.1537 6.76744C15.3665 5.96468 14.0776 5.95208 13.2748 6.7393C12.4721 7.52652 12.4595 8.81546 13.2467 9.61822C14.0339 10.421 15.3228 10.4336 16.1256 9.64636Z" fill="#A2ABBA"/>
<path d="M9.45365 8.55533C11.0076 8.30504 12.0644 6.84241 11.8141 5.28846C11.5638 3.73451 10.1012 2.67769 8.54726 2.92798C6.99331 3.17828 5.93648 4.64091 6.18678 6.19486C6.43707 7.74881 7.8997 8.80563 9.45365 8.55533Z" fill="#A2ABBA"/>
</svg>
