<svg width="17" height="16" viewBox="0 0 17 16" fill="none" xmlns="http://www.w3.org/2000/svg">
<path d="M5.49093 4.66667C5.89093 4.66667 6.2182 4.36667 6.2182 4V3.33333C6.2182 2.22667 7.19274 1.33333 8.40001 1.33333C9.60729 1.33333 10.5818 2.22667 10.5818 3.33333V4C10.5818 4.36667 10.9091 4.66667 11.3091 4.66667C11.7091 4.66667 12.0364 4.36667 12.0364 4V3.33333C12.0364 1.49333 10.4073 0 8.40001 0C6.39274 0 4.76366 1.49333 4.76366 3.33333V4C4.76366 4.36667 5.09093 4.66667 5.49093 4.66667ZM8.40001 10C6.39274 10 4.76366 8.50667 4.76366 6.66667C4.76366 6.3 5.09093 6 5.49093 6C5.89093 6 6.2182 6.3 6.2182 6.66667C6.2182 7.77333 7.19274 8.66667 8.40001 8.66667C9.60729 8.66667 10.5818 7.77333 10.5818 6.66667C10.5818 6.3 10.9091 6 11.3091 6C11.7091 6 12.0364 6.3 12.0364 6.66667C12.0364 8.50667 10.4073 10 8.40001 10ZM16.4 11.9333L15.6727 5.33333C15.6727 4.22667 14.6982 3.33333 13.4909 3.33333H3.30911C2.74229 3.33136 2.19704 3.53234 1.7895 3.89347C1.38196 4.25459 1.14435 4.74731 1.1273 5.26667L0.400024 12C0.400024 14.2067 2.35639 16 4.76366 16H12.0364C14.4582 15.9933 16.4073 14.1867 16.4 11.9667V11.9333Z" fill="#A2ABBA"/>
</svg>
