<svg width="16" height="16" viewBox="0 0 16 16" fill="none" xmlns="http://www.w3.org/2000/svg">
<g clip-path="url(#clip0_4002_512)">
<path d="M9.54671 11.8936V13.7176C9.54671 14.6085 7.68207 15.6 5.00431 15.6C2.32847 15.6 0.461914 14.6085 0.461914 13.7176V11.8936C1.36335 12.6608 3.04063 13.1662 5.00431 13.1662C6.96799 13.1662 8.64527 12.6606 9.54671 11.8936Z" fill="white"/>
<path d="M9.54671 8.75296V10.577C9.54671 11.4677 7.68207 12.4592 5.00431 12.4592C2.33023 12.4592 0.465594 11.4694 0.461914 10.5805V8.75296C1.36335 9.52176 3.04063 10.0272 5.00431 10.0272C6.96799 10.0272 8.64527 9.52176 9.54671 8.75296Z" fill="white"/>
<path d="M9.54671 7.43791C9.54671 8.32879 7.68207 9.32031 5.00431 9.32031C2.33375 9.32031 0.469114 8.33231 0.461914 7.44319V7.43631C0.465594 6.54543 2.33023 5.55391 5.00431 5.55391C7.68207 5.55391 9.54671 6.54719 9.54671 7.43791ZM15.5382 2.28239C15.5382 3.17311 13.6718 4.16639 10.9958 4.16639C8.31823 4.16639 6.45359 3.17311 6.45359 2.28239C6.45359 1.39167 8.31823 0.399994 10.996 0.399994C13.6718 0.399994 15.5382 1.39151 15.5382 2.28239Z" fill="white"/>
<path d="M15.5383 3.59903V5.42479C15.5347 6.31567 13.6701 7.30543 10.9959 7.30543C10.7415 7.30543 10.4906 7.29295 10.2431 7.27535C10.1071 6.14591 8.56929 5.23391 6.45361 4.94415V3.59903C7.35505 4.36607 9.03233 4.87343 10.996 4.87343C12.9597 4.87343 14.6368 4.36623 15.5383 3.59903ZM15.5383 6.73807V8.56559C15.5347 9.45455 13.6701 10.4461 10.9959 10.4461C10.745 10.4461 10.4976 10.4337 10.2536 10.4161V7.98399C10.4994 8.00159 10.745 8.01215 10.996 8.01215C12.9597 8.01215 14.637 7.50671 15.5384 6.73791L15.5383 6.73807ZM15.5383 9.87871V11.7027C15.5367 12.1481 15.0699 12.6184 14.2693 12.9771C13.4687 13.3376 12.3339 13.5851 10.996 13.5851C10.7432 13.5851 10.4959 13.5728 10.2536 13.555V11.1248C10.4994 11.1424 10.745 11.1531 10.996 11.1531C12.9597 11.1531 14.6368 10.6459 15.5383 9.87871Z" fill="white"/>
</g>
<defs>
<clipPath id="clip0_4002_512">
<rect width="16" height="16" fill="white"/>
</clipPath>
</defs>
</svg>
