<svg width="130" height="310" viewBox="0 0 130 310" fill="none" xmlns="http://www.w3.org/2000/svg">
<g clip-path="url(#clip0_104_932)">
<path d="M129.846 139.011C129.846 136.469 130.322 125.676 129.5 123.901C128.654 122.072 125.686 120.934 123.48 120.095H6.518C4.35324 120.951 1.30092 122.099 0.484808 123.972C-0.369551 125.934 0.165142 135.553 0.166104 138.155L0.173797 170.741L0.158171 285.928C0.157209 289.133 -0.367399 294.561 0.504519 297.479C0.822257 298.541 1.77861 299.527 2.77103 300.297C13.7036 308.773 50.3058 310.014 65.2857 309.999C66.9823 310.004 68.678 309.979 70.3729 309.925C84.6122 309.667 116.757 308.28 127.162 300.331C128.369 299.41 129.476 298.201 129.716 296.897C130.269 293.915 129.844 288.186 129.841 284.935L129.839 170.47L129.846 139.011Z" fill="#25263B" fill-opacity="0.5"/>
<mask id="mask0_104_932" style="mask-type:alpha" maskUnits="userSpaceOnUse" x="0" y="120" width="130" height="190">
<path d="M129.846 139.011C129.846 136.469 130.322 125.676 129.5 123.901C128.654 122.072 125.686 120.934 123.48 120.095H6.518C4.35324 120.951 1.30092 122.099 0.484808 123.972C-0.369551 125.934 0.165142 135.553 0.166104 138.155L0.173797 170.741L0.158171 285.928C0.157209 289.133 -0.367399 294.561 0.504519 297.479C0.822257 298.541 1.77861 299.527 2.77103 300.297C13.7036 308.773 50.3058 310.014 65.2857 309.999C66.9823 310.004 68.678 309.979 70.3729 309.925C84.6122 309.667 116.757 308.28 127.162 300.331C128.369 299.41 129.476 298.201 129.716 296.897C130.269 293.915 129.844 288.186 129.841 284.935L129.839 170.47L129.846 139.011Z" fill="#25263B"/>
</mask>
<g mask="url(#mask0_104_932)">
<rect x="130" y="310" width="130" height="190" transform="rotate(-180 130 310)" fill="url(#paint0_linear_104_932)"/>
</g>
<path d="M4.72586 92.5579C5.27157 93.3435 5.08631 94.3631 5.05411 95.2759L122.135 95.2573C122.117 94.8493 122.106 94.4412 122.101 94.0328C122.07 91.5431 123.495 92.2394 124.653 90.7549C125.049 90.248 125.138 89.536 125.198 88.9182C125.648 84.1198 125.275 78.9772 125.278 74.1365C125.282 65.4661 125.429 56.7665 125.258 48.0991C125.242 47.202 125.307 46.1956 124.905 45.3694C124.446 44.4272 123.608 43.6636 122.767 43.0592C120.472 41.4095 117.653 40.1705 115.188 38.7579C110.327 36.0164 105.614 33.0434 101.049 29.8389C99.0878 28.4806 97.1623 27.0746 95.272 25.6209C93.3816 24.1671 91.529 22.6673 89.7139 21.1216C87.9005 19.5761 86.1263 17.9866 84.3914 16.353C82.6564 14.7195 80.9631 13.0439 79.3115 11.3263C76.5265 8.38526 74.1812 4.77448 71.2231 2.0603C70.7377 1.61427 70.1779 1.10615 69.5627 0.841824C66.8642 -0.316005 60.8376 0.162028 57.8507 0.338723C56.9839 0.389821 56.2575 0.57296 55.497 0.990819C53.9572 1.83657 47.0242 10.364 45.0312 12.4158C41.6683 15.8698 38.1271 19.1327 34.4074 22.2045C25.701 29.4206 16.2319 35.5239 6.30461 40.9356C4.70784 41.8059 2.34525 42.7629 1.19231 44.1719C0.645155 44.8403 0.304179 45.5552 0.192201 46.4119C-0.120184 48.8033 0.0706111 51.4176 0.068929 53.83L0.0569171 81.822C0.0578783 84.2067 -0.126904 86.7564 0.164335 89.1234C0.590619 92.588 2.83065 91.0328 4.72586 92.5579Z" fill="#25263B"/>
<path d="M126.131 97.9803C124.975 96.8777 123.615 97.1394 122.135 97.1675L5.05413 97.1862C3.9454 97.1561 2.2984 96.9116 1.40642 97.6809C0.508438 98.4555 0.81001 112.408 0.879456 114.377L0.880838 114.416C0.911121 115.273 0.943062 116.176 1.25432 116.979C2.42095 117.951 3.74475 117.652 5.14255 117.922H121.991L121.743 117.797C123.271 117.774 124.821 117.954 126.059 116.921C126.854 114.688 126.655 100.591 126.131 97.9803Z" fill="#25263B"/>
<path d="M35.6875 202.719V226H30.7812V207.391H30.6406L25.3281 210.75V206.375L31.0781 202.719H35.6875ZM47.6719 226.312C45.6927 226.312 44 225.844 42.5938 224.906C41.1979 223.958 40.125 222.599 39.375 220.828C38.6354 219.047 38.2656 216.896 38.2656 214.375C38.2656 211.865 38.6406 209.719 39.3906 207.938C40.1406 206.146 41.2135 204.776 42.6094 203.828C44.0156 202.88 45.7031 202.406 47.6719 202.406C49.651 202.406 51.3385 202.88 52.7344 203.828C54.1406 204.776 55.2135 206.141 55.9531 207.922C56.7031 209.703 57.0781 211.854 57.0781 214.375C57.0781 216.896 56.7083 219.047 55.9688 220.828C55.2292 222.599 54.1562 223.958 52.75 224.906C51.3542 225.844 49.6615 226.312 47.6719 226.312ZM47.6719 222.25C48.6198 222.25 49.4167 221.948 50.0625 221.344C50.7188 220.729 51.2135 219.833 51.5469 218.656C51.8906 217.479 52.0625 216.052 52.0625 214.375C52.0625 212.688 51.8906 211.255 51.5469 210.078C51.2135 208.901 50.7188 208.005 50.0625 207.391C49.4167 206.766 48.6198 206.453 47.6719 206.453C46.2656 206.453 45.1823 207.146 44.4219 208.531C43.6615 209.906 43.2812 211.854 43.2812 214.375C43.2812 216.052 43.4479 217.479 43.7812 218.656C44.125 219.833 44.625 220.729 45.2812 221.344C45.9375 221.948 46.7344 222.25 47.6719 222.25ZM68.6406 226.312C66.6615 226.312 64.9688 225.844 63.5625 224.906C62.1667 223.958 61.0938 222.599 60.3438 220.828C59.6042 219.047 59.2344 216.896 59.2344 214.375C59.2344 211.865 59.6094 209.719 60.3594 207.938C61.1094 206.146 62.1823 204.776 63.5781 203.828C64.9844 202.88 66.6719 202.406 68.6406 202.406C70.6198 202.406 72.3073 202.88 73.7031 203.828C75.1094 204.776 76.1823 206.141 76.9219 207.922C77.6719 209.703 78.0469 211.854 78.0469 214.375C78.0469 216.896 77.6771 219.047 76.9375 220.828C76.1979 222.599 75.125 223.958 73.7188 224.906C72.3229 225.844 70.6302 226.312 68.6406 226.312ZM68.6406 222.25C69.5885 222.25 70.3854 221.948 71.0312 221.344C71.6875 220.729 72.1823 219.833 72.5156 218.656C72.8594 217.479 73.0312 216.052 73.0312 214.375C73.0312 212.688 72.8594 211.255 72.5156 210.078C72.1823 208.901 71.6875 208.005 71.0312 207.391C70.3854 206.766 69.5885 206.453 68.6406 206.453C67.2344 206.453 66.151 207.146 65.3906 208.531C64.6302 209.906 64.25 211.854 64.25 214.375C64.25 216.052 64.4167 217.479 64.75 218.656C65.0938 219.833 65.5938 220.729 66.25 221.344C66.9062 221.948 67.7031 222.25 68.6406 222.25ZM93.2344 221.625V220.406C93.2344 219.469 93.4323 218.609 93.8281 217.828C94.224 217.047 94.8021 216.422 95.5625 215.953C96.3229 215.474 97.25 215.234 98.3438 215.234C99.4688 215.234 100.406 215.469 101.156 215.938C101.917 216.406 102.49 217.036 102.875 217.828C103.271 218.609 103.469 219.469 103.469 220.406V221.625C103.469 222.562 103.271 223.427 102.875 224.219C102.479 225 101.901 225.625 101.141 226.094C100.38 226.562 99.4479 226.797 98.3438 226.797C97.2396 226.797 96.3073 226.562 95.5469 226.094C94.7865 225.625 94.2083 225 93.8125 224.219C93.4271 223.427 93.2344 222.562 93.2344 221.625ZM96.5312 220.406V221.625C96.5312 222.167 96.6615 222.677 96.9219 223.156C97.1823 223.635 97.6562 223.875 98.3438 223.875C99.0417 223.875 99.5156 223.641 99.7656 223.172C100.016 222.703 100.141 222.188 100.141 221.625V220.406C100.141 219.844 100.021 219.328 99.7812 218.859C99.5417 218.38 99.0625 218.146 98.3438 218.156C97.6667 218.146 97.1927 218.38 96.9219 218.859C96.6615 219.328 96.5312 219.844 96.5312 220.406ZM81.2812 208.312V207.094C81.2812 206.156 81.4792 205.297 81.875 204.516C82.2812 203.724 82.8646 203.094 83.625 202.625C84.3958 202.156 85.3229 201.922 86.4062 201.922C87.5208 201.922 88.4583 202.156 89.2188 202.625C89.9896 203.094 90.5677 203.724 90.9531 204.516C91.3385 205.297 91.526 206.156 91.5156 207.094V208.312C91.526 209.25 91.3333 210.109 90.9375 210.891C90.5417 211.672 89.9635 212.297 89.2031 212.766C88.4427 213.224 87.5104 213.458 86.4062 213.469C85.3021 213.458 84.3646 213.219 83.5938 212.75C82.8333 212.281 82.2552 211.656 81.8594 210.875C81.474 210.094 81.2812 209.24 81.2812 208.312ZM84.6094 207.094V208.312C84.6094 208.875 84.7396 209.391 85 209.859C85.2604 210.328 85.7292 210.557 86.4062 210.547C87.0938 210.557 87.5625 210.328 87.8125 209.859C88.0729 209.391 88.1979 208.875 88.1875 208.312V207.094C88.1979 206.531 88.0781 206.016 87.8281 205.547C87.5885 205.068 87.1146 204.828 86.4062 204.828C85.7188 204.828 85.2448 205.073 84.9844 205.562C84.7344 206.042 84.6094 206.552 84.6094 207.094ZM82.7812 226L98.7812 202.719H101.766L85.7656 226H82.7812Z" fill="white"/>
<path fill-rule="evenodd" clip-rule="evenodd" d="M7.00893 54C7.56614 54 8.01786 54.4114 8.01786 54.9189L8.01786 87.0811C8.01786 87.5886 7.56615 88 7.00893 88C6.45171 88 6 87.5886 6 87.0811L6 54.9189C6 54.4114 6.45171 54 7.00893 54ZM17.0982 54C17.6554 54 18.1071 54.4114 18.1071 54.9189L18.1071 87.0811C18.1071 87.5886 17.6554 88 17.0982 88C16.541 88 16.0893 87.5886 16.0893 87.0811L16.0893 54.9189C16.0893 54.4114 16.541 54 17.0982 54ZM27.1875 54C27.7447 54 28.1964 54.4114 28.1964 54.9189L28.1964 87.0811C28.1964 87.5886 27.7447 88 27.1875 88C26.6303 88 26.1786 87.5886 26.1786 87.0811L26.1786 54.9189C26.1786 54.4114 26.6303 54 27.1875 54ZM37.2768 54C37.834 54 38.2857 54.4114 38.2857 54.9189V87.0811C38.2857 87.5886 37.834 88 37.2768 88C36.7196 88 36.2679 87.5886 36.2679 87.0811L36.2679 54.9189C36.2679 54.4114 36.7196 54 37.2768 54ZM47.3661 54C47.9233 54 48.375 54.4114 48.375 54.9189V87.0811C48.375 87.5886 47.9233 88 47.3661 88C46.8089 88 46.3571 87.5886 46.3571 87.0811V54.9189C46.3571 54.4114 46.8089 54 47.3661 54ZM57.4554 54C58.0126 54 58.4643 54.4114 58.4643 54.9189V87.0811C58.4643 87.5886 58.0126 88 57.4554 88C56.8981 88 56.4464 87.5886 56.4464 87.0811V54.9189C56.4464 54.4114 56.8981 54 57.4554 54ZM67.5446 54C68.1019 54 68.5536 54.4114 68.5536 54.9189V87.0811C68.5536 87.5886 68.1019 88 67.5446 88C66.9874 88 66.5357 87.5886 66.5357 87.0811V54.9189C66.5357 54.4114 66.9874 54 67.5446 54ZM77.6339 54C78.1911 54 78.6429 54.4114 78.6429 54.9189V87.0811C78.6429 87.5886 78.1911 88 77.6339 88C77.0767 88 76.625 87.5886 76.625 87.0811V54.9189C76.625 54.4114 77.0767 54 77.6339 54ZM87.7232 54C88.2804 54 88.7321 54.4114 88.7321 54.9189V87.0811C88.7321 87.5886 88.2804 88 87.7232 88C87.166 88 86.7143 87.5886 86.7143 87.0811V54.9189C86.7143 54.4114 87.166 54 87.7232 54ZM97.8125 54C98.3697 54 98.8214 54.4114 98.8214 54.9189V87.0811C98.8214 87.5886 98.3697 88 97.8125 88C97.2553 88 96.8036 87.5886 96.8036 87.0811V54.9189C96.8036 54.4114 97.2553 54 97.8125 54ZM107.902 54C108.459 54 108.911 54.4114 108.911 54.9189V87.0811C108.911 87.5886 108.459 88 107.902 88C107.345 88 106.893 87.5886 106.893 87.0811V54.9189C106.893 54.4114 107.345 54 107.902 54ZM117.991 54C118.548 54 119 54.4114 119 54.9189V87.0811C119 87.5886 118.548 88 117.991 88C117.434 88 116.982 87.5886 116.982 87.0811V54.9189C116.982 54.4114 117.434 54 117.991 54Z" fill="#141420"/>
<path fill-rule="evenodd" clip-rule="evenodd" d="M125.291 50H0V48H125.291V50Z" fill="#141420"/>
</g>
<defs>
<linearGradient id="paint0_linear_104_932" x1="130" y1="310" x2="264.321" y2="313.106" gradientUnits="userSpaceOnUse">
<stop stop-color="#B721FF"/>
<stop offset="1" stop-color="#21A9FD"/>
</linearGradient>
<clipPath id="clip0_104_932">
<rect width="130" height="310" fill="white"/>
</clipPath>
</defs>
</svg>
