<svg width="48" height="114" viewBox="0 0 48 114" fill="none" xmlns="http://www.w3.org/2000/svg">
<g clip-path="url(#clip0_132_1051)">
<path d="M47.9432 51.1203C47.9432 50.1855 48.119 46.2162 47.8153 45.5635C47.503 44.8909 46.4071 44.4724 45.5927 44.1638H2.40665C1.60735 44.4789 0.480341 44.9008 0.179006 45.5897C-0.13645 46.3111 0.0609755 49.8484 0.0613307 50.8055L0.0641711 62.7886L0.0584016 105.148C0.0580463 106.326 -0.135655 108.323 0.186284 109.395C0.303603 109.786 0.656717 110.149 1.02315 110.432C5.05977 113.549 18.5745 114.005 24.1055 114C24.7319 114.002 25.358 113.992 25.9838 113.973C31.2414 113.878 43.1101 113.367 46.9521 110.444C47.3979 110.106 47.8064 109.661 47.8952 109.182C48.0995 108.085 47.9423 105.978 47.9414 104.782L47.9405 62.689L47.9432 51.1203Z" fill="#25263B" fill-opacity="0.5"/>
<mask id="mask0_132_1051" style="mask-type:alpha" maskUnits="userSpaceOnUse" x="0" y="44" width="48" height="70">
<path d="M47.9432 51.1203C47.9432 50.1855 48.119 46.2162 47.8153 45.5635C47.503 44.8909 46.4071 44.4724 45.5927 44.1638H2.40665C1.60735 44.4789 0.480341 44.9008 0.179006 45.5897C-0.13645 46.3111 0.0609755 49.8484 0.0613307 50.8055L0.0641711 62.7886L0.0584016 105.148C0.0580463 106.326 -0.135655 108.323 0.186284 109.395C0.303603 109.786 0.656717 110.149 1.02315 110.432C5.05977 113.549 18.5745 114.005 24.1055 114C24.7319 114.002 25.358 113.992 25.9838 113.973C31.2414 113.878 43.1101 113.367 46.9521 110.444C47.3979 110.106 47.8064 109.661 47.8952 109.182C48.0995 108.085 47.9423 105.978 47.9414 104.782L47.9405 62.689L47.9432 51.1203Z" fill="#25263B"/>
</mask>
<g mask="url(#mask0_132_1051)">
<rect x="48" y="114" width="48" height="69.871" transform="rotate(-180 48 114)" fill="url(#paint0_linear_132_1051)"/>
</g>
<path d="M1.74493 34.0374C1.94643 34.3263 1.87802 34.7013 1.86613 35.037L45.0959 35.0301C45.0893 34.8801 45.0852 34.73 45.0834 34.5798C45.0719 33.6642 45.598 33.9203 46.0257 33.3744C46.1721 33.188 46.2049 32.9261 46.2271 32.699C46.393 30.9344 46.2555 29.0432 46.2564 27.2631C46.2581 24.0746 46.3123 20.8754 46.2493 17.6881C46.2431 17.3582 46.267 16.9881 46.1188 16.6842C45.9494 16.3377 45.6397 16.0569 45.3292 15.8347C44.4819 15.228 43.4412 14.7724 42.5308 14.2529C40.7362 13.2448 38.996 12.1515 37.3103 10.973C36.5863 10.4735 35.8753 9.95645 35.1773 9.42188C34.4794 8.88724 33.7953 8.33572 33.1251 7.76731C32.4556 7.19895 31.8005 6.61441 31.1599 6.01369C30.5193 5.41296 29.8941 4.79678 29.2843 4.16515C28.2559 3.08361 27.39 1.75578 26.2978 0.757661C26.1186 0.593635 25.9118 0.406779 25.6847 0.309575C24.6883 -0.116207 22.4631 0.0595857 21.3603 0.124564C21.0402 0.143355 20.772 0.210703 20.4912 0.364367C19.9227 0.675384 17.3628 3.81128 16.6269 4.56582C15.3852 5.83599 14.0777 7.03589 12.7043 8.16552C9.48962 10.8192 5.99333 13.0636 2.32786 15.0537C1.73828 15.3738 0.865938 15.7257 0.440237 16.2439C0.238211 16.4897 0.112312 16.7525 0.0709665 17.0676C-0.0443755 17.947 0.0260718 18.9084 0.0254507 19.7955L0.0210156 30.0894C0.0213705 30.9663 -0.0468569 31.904 0.0606774 32.7744C0.218075 34.0485 1.04516 33.4766 1.74493 34.0374Z" fill="#25263B"/>
<path d="M46.5713 36.0315C46.1446 35.626 45.6424 35.7222 45.0958 35.7326L1.86612 35.7394C1.45675 35.7284 0.848625 35.6384 0.519279 35.9214C0.187715 36.2062 0.299065 41.337 0.324707 42.0614L0.325217 42.0757C0.336398 42.3906 0.348192 42.7227 0.463117 43.018C0.893875 43.3755 1.38266 43.2657 1.89877 43.3649H45.043L44.9512 43.3189C45.5155 43.3103 46.0878 43.3767 46.5447 42.9966C46.8384 42.1757 46.7647 36.9917 46.5713 36.0315Z" fill="#25263B"/>
<path fill-rule="evenodd" clip-rule="evenodd" d="M2.58792 19.8581C2.79366 19.8581 2.96045 20.0094 2.96045 20.196L2.96045 32.0234C2.96045 32.21 2.79366 32.3613 2.58792 32.3613C2.38218 32.3613 2.21539 32.21 2.21539 32.0234L2.21539 20.196C2.21539 20.0094 2.38218 19.8581 2.58792 19.8581ZM6.3132 19.8581C6.51894 19.8581 6.68572 20.0094 6.68572 20.196L6.68572 32.0234C6.68572 32.21 6.51894 32.3613 6.3132 32.3613C6.10746 32.3613 5.94067 32.21 5.94067 32.0234L5.94067 20.196C5.94067 20.0094 6.10745 19.8581 6.3132 19.8581ZM10.0385 19.8581C10.2442 19.8581 10.411 20.0094 10.411 20.196L10.411 32.0234C10.411 32.21 10.2442 32.3613 10.0385 32.3613C9.83273 32.3613 9.66594 32.21 9.66594 32.0234L9.66594 20.196C9.66594 20.0094 9.83273 19.8581 10.0385 19.8581ZM13.7637 19.8581C13.9695 19.8581 14.1363 20.0094 14.1363 20.196V32.0234C14.1363 32.21 13.9695 32.3613 13.7637 32.3613C13.558 32.3613 13.3912 32.21 13.3912 32.0234L13.3912 20.196C13.3912 20.0094 13.558 19.8581 13.7637 19.8581ZM17.489 19.8581C17.6948 19.8581 17.8615 20.0094 17.8615 20.196V32.0234C17.8615 32.21 17.6948 32.3613 17.489 32.3613C17.2833 32.3613 17.1165 32.21 17.1165 32.0234V20.196C17.1165 20.0094 17.2833 19.8581 17.489 19.8581ZM21.2143 19.8581C21.42 19.8581 21.5868 20.0094 21.5868 20.196V32.0234C21.5868 32.21 21.42 32.3613 21.2143 32.3613C21.0086 32.3613 20.8418 32.21 20.8418 32.0234V20.196C20.8418 20.0094 21.0086 19.8581 21.2143 19.8581ZM24.9396 19.8581C25.1453 19.8581 25.3121 20.0094 25.3121 20.196V32.0234C25.3121 32.21 25.1453 32.3613 24.9396 32.3613C24.7338 32.3613 24.567 32.21 24.567 32.0234V20.196C24.567 20.0094 24.7338 19.8581 24.9396 19.8581ZM28.6648 19.8581C28.8706 19.8581 29.0374 20.0094 29.0374 20.196V32.0234C29.0374 32.21 28.8706 32.3613 28.6648 32.3613C28.4591 32.3613 28.2923 32.21 28.2923 32.0234V20.196C28.2923 20.0094 28.4591 19.8581 28.6648 19.8581ZM32.3901 19.8581C32.5959 19.8581 32.7626 20.0094 32.7626 20.196V32.0234C32.7626 32.21 32.5959 32.3613 32.3901 32.3613C32.1844 32.3613 32.0176 32.21 32.0176 32.0234V20.196C32.0176 20.0094 32.1844 19.8581 32.3901 19.8581ZM36.1154 19.8581C36.3211 19.8581 36.4879 20.0094 36.4879 20.196V32.0234C36.4879 32.21 36.3211 32.3613 36.1154 32.3613C35.9097 32.3613 35.7429 32.21 35.7429 32.0234V20.196C35.7429 20.0094 35.9097 19.8581 36.1154 19.8581ZM39.8407 19.8581C40.0464 19.8581 40.2132 20.0094 40.2132 20.196V32.0234C40.2132 32.21 40.0464 32.3613 39.8407 32.3613C39.6349 32.3613 39.4681 32.21 39.4681 32.0234V20.196C39.4681 20.0094 39.6349 19.8581 39.8407 19.8581ZM43.5659 19.8581C43.7717 19.8581 43.9385 20.0094 43.9385 20.196V32.0234C43.9385 32.21 43.7717 32.3613 43.5659 32.3613C43.3602 32.3613 43.1934 32.21 43.1934 32.0234V20.196C43.1934 20.0094 43.3602 19.8581 43.5659 19.8581Z" fill="#141420"/>
<path fill-rule="evenodd" clip-rule="evenodd" d="M46.2612 18.3871H0V17.6516H46.2612V18.3871Z" fill="#141420"/>

</g>
<defs>
<linearGradient id="paint0_linear_132_1051" x1="48" y1="114" x2="97.5953" y2="115.151" gradientUnits="userSpaceOnUse">
<stop stop-color="#B721FF"/>
<stop offset="1" stop-color="#21A9FD"/>
</linearGradient>
<clipPath id="clip0_132_1051">
<rect width="48" height="114" fill="white"/>
</clipPath>
</defs>
</svg>
